<?xml version="1.0" encoding="UTF-8"?>
<svg version="1.1" xmlns="http://www.w3.org/2000/svg" width="360" height="360">
<path d="M0 0 C7.29163891 4.92612394 11.96733421 11.3611704 14 20 C14.76623694 27.85056792 13.91089678 34.82498139 9.3359375 41.38671875 C4.99511677 46.61818597 0.31183673 50.39407571 -6 53 C-6.66 53 -7.32 53 -8 53 C-8 56.96 -8 60.92 -8 65 C-6.35 65.66 -4.7 66.32 -3 67 C-1.29259263 67.88227318 0.39946519 68.79465513 2.078125 69.73046875 C3.06103516 70.27823975 4.04394531 70.82601074 5.05664062 71.39038086 C6.11044922 71.98343018 7.16425781 72.57647949 8.25 73.1875 C9.35537109 73.80826416 10.46074219 74.42902832 11.59960938 75.06860352 C22.45096333 81.19746667 33.13074278 87.59991584 43.78710938 94.06054688 C47.1676301 96.10118948 50.55866531 98.12330305 53.953125 100.140625 C55.10226755 100.82486048 56.2513567 101.50918563 57.40039062 102.19360352 C59.57984255 103.49094928 61.76075787 104.78584084 63.94335938 106.07788086 C64.92626953 106.66448486 65.90917969 107.25108887 66.921875 107.85546875 C67.78393555 108.36746826 68.64599609 108.87946777 69.53417969 109.40698242 C74.5999909 112.67969709 77.80689332 115.235024 80 121 C80.56862011 125.53526303 80.55745114 130.06458229 80.5559082 134.63012695 C80.56245484 136.79754911 80.61694815 138.96034315 80.67382812 141.12695312 C80.76548292 148.36908942 80.51467992 154.36773773 75.78100586 160.24829102 C72.93627364 163.04622846 69.96910791 165.11094119 66.5 167.0625 C65.79931396 167.47822266 65.09862793 167.89394531 64.37670898 168.32226562 C62.2626555 169.56944975 60.13416376 170.78762518 58 172 C56.81340494 172.68551093 55.62718285 173.37166804 54.44140625 174.05859375 C52.15995875 175.369437 49.87334284 176.67131992 47.58203125 177.96484375 C43.7762648 180.11638434 40.01287432 182.33703763 36.25 184.5625 C28.69284471 189.02448953 21.10083737 193.42547103 13.5 197.8125 C12.40204102 198.44679932 11.30408203 199.08109863 10.17285156 199.73461914 C7.1185741 201.49564608 4.06021332 203.24931298 1 205 C0.12786865 205.50321777 -0.7442627 206.00643555 -1.64282227 206.52490234 C-2.82702759 207.19900146 -2.82702759 207.19900146 -4.03515625 207.88671875 C-4.71199463 208.27432373 -5.38883301 208.66192871 -6.08618164 209.0612793 C-11.75162282 211.84015687 -17.12410568 211.29876148 -22.9765625 209.3359375 C-30.00161514 206.23184447 -36.48285515 202.03851315 -43 198 C-43.61375488 197.62085449 -44.22750977 197.24170898 -44.85986328 196.85107422 C-47.47188638 195.23718302 -50.08128372 193.62013894 -52.6796875 191.984375 C-56.38361952 189.77073092 -60.16009372 187.72357457 -63.95361328 185.66845703 C-69.3485188 182.71375401 -74.67216931 179.63600796 -80 176.5625 C-81.64742187 175.61793945 -81.64742187 175.61793945 -83.328125 174.65429688 C-107.01991565 160.99783224 -107.01991565 160.99783224 -109.60449219 153.16894531 C-110.52662485 148.11201534 -110.22831284 142.87359206 -110.25 137.75 C-110.270625 136.54730469 -110.29125 135.34460938 -110.3125 134.10546875 C-110.37540058 119.77986145 -110.37540058 119.77986145 -105.37207031 114.17700195 C-100.44873002 109.60097958 -94.8135918 106.25278442 -89 102.9375 C-88.04577148 102.38368652 -87.09154297 101.82987305 -86.10839844 101.25927734 C-84.09185077 100.08946957 -82.07325633 98.92318371 -80.05273438 97.76025391 C-77.07503552 96.04326664 -74.10632983 94.31182779 -71.140625 92.57421875 C-59.27857599 85.62553196 -47.37882342 78.74269518 -35.46386719 71.88525391 C-34.43036133 71.29019043 -33.39685547 70.69512695 -32.33203125 70.08203125 C-31.42171143 69.55843018 -30.5113916 69.0348291 -29.57348633 68.49536133 C-28.72423584 68.00189209 -27.87498535 67.50842285 -27 67 C-26.07509766 66.49259277 -25.15019531 65.98518555 -24.19726562 65.46240234 C-23.47216797 64.97980957 -22.74707031 64.4972168 -22 64 C-21.3970916 61.49638211 -21.3970916 61.49638211 -21.6875 58.8125 C-21.75517578 57.46091797 -21.75517578 57.46091797 -21.82421875 56.08203125 C-21.88222656 55.39496094 -21.94023437 54.70789063 -22 54 C-22.71285156 53.6596875 -23.42570312 53.319375 -24.16015625 52.96875 C-32.05917951 48.97139772 -38.17813393 44.54152712 -41.9375 36.3125 C-44.3559847 28.6815048 -44.0316821 19.49600812 -41.09765625 12.05859375 C-37.22762689 4.80056715 -31.48357031 0.22305339 -24 -3 C-15.58322347 -5.54460686 -7.7437678 -3.88330539 0 0 Z " fill="#FBFBFB" transform="translate(194,71)"/>
</svg>
